<?xml version="1.0" standalone="no"?>
<!DOCTYPE svg PUBLIC "-//W3C//DTD SVG 20010904//EN"
 "http://www.w3.org/TR/2001/REC-SVG-20010904/DTD/svg10.dtd">
<svg version="1.0" xmlns="http://www.w3.org/2000/svg"
 width="400.000000pt" height="400.000000pt" viewBox="0 0 400.000000 400.000000"
 preserveAspectRatio="xMidYMid meet">
<metadata>
Created by potrace 1.14, written by Peter Selinger 2001-2017
</metadata>
<g transform="translate(0.000000,400.000000) scale(0.100000,-0.100000)"
fill="#000000" stroke="none">
<path d="M0 2000 l0 -2000 2000 0 2000 0 0 2000 0 2000 -2000 0 -2000 0 0
-2000z m1542 823 c312 -312 568 -572 568 -578 0 -6 -32 -42 -70 -80 l-70 -70
-398 398 c-219 219 -401 395 -405 391 -4 -4 -7 -182 -7 -396 l0 -388 -105 0
-105 0 0 645 c0 500 3 645 12 645 7 0 268 -255 580 -567z m1034 517 c279 -72
501 -290 576 -567 29 -108 29 -287 0 -394 -54 -200 -190 -379 -370 -484 -141
-83 -302 -119 -507 -113 l-110 3 0 100 0 100 145 6 c80 3 170 11 200 18 198
46 369 205 431 401 28 85 30 231 5 314 -59 200 -220 359 -416 411 -36 10 -106
15 -202 15 l-148 0 0 -212 c0 -117 -4 -219 -8 -226 -6 -9 -35 -12 -108 -10
l-99 3 -3 315 c-1 173 0 320 3 327 3 10 65 13 268 13 232 0 273 -2 343 -20z
m-618 -1452 l-3 -103 -275 -6 c-151 -3 -289 -10 -305 -16 -282 -98 -416 -400
-295 -661 39 -84 81 -135 152 -188 113 -83 136 -88 448 -94 l275 -5 0 -105 0
-105 -255 0 c-206 1 -270 4 -331 18 -347 80 -587 418 -540 760 40 287 240 515
513 587 63 16 111 19 346 19 l273 1 -3 -102z m1050 -1172 c2 -73 -1 -102 -10
-108 -22 -13 -812 -10 -826 4 -16 16 -16 180 0 196 9 9 112 12 423 10 l410 -3
3 -99z"/>
</g>
</svg>
