<svg width="331" height="203" viewBox="0 0 331 203" fill="none" xmlns="http://www.w3.org/2000/svg">
<path d="M162.597 93.7988L105.945 37.2072C105.342 36.6039 104.316 37.0262 104.316 37.8709V93.3161C104.316 93.8591 103.894 94.2814 103.351 94.2814H89.8965C89.3535 94.2814 88.9312 93.8591 88.9312 93.3161V0.94759C88.9312 0.10294 89.9568 -0.31937 90.5601 0.283951L173.396 82.9993C173.758 83.3613 173.758 83.9646 173.396 84.3266L163.924 93.8591C163.562 94.2211 162.959 94.2211 162.597 93.7988Z" fill="white"/>
<path d="M192.944 117.208H178.645C178.042 117.208 177.559 116.725 177.559 116.122V103.03C177.559 102.426 178.042 101.944 178.645 101.944H193.125C217.318 101.944 237.047 81.9134 235.9 57.7202C234.814 35.3973 216.353 17.539 193.728 17.539H178.343V49.2737C178.343 49.877 177.861 50.3597 177.257 50.3597H164.165C163.562 50.3597 163.079 49.877 163.079 49.2737V3.30059C163.079 2.69727 163.562 2.2146 164.165 2.2146H193.788C225.161 2.2146 250.742 27.4334 251.285 58.6855C251.828 90.9632 225.282 117.208 192.944 117.208Z" fill="white"/>
<path d="M161.692 203H131.224C103.35 203 80.2432 180.737 80.0019 152.924C79.7606 124.81 102.506 101.883 130.56 101.883H161.752C162.416 101.883 162.959 102.426 162.959 103.09V116.001C162.959 116.665 162.416 117.208 161.752 117.208H130.621C111.013 117.208 95.0849 133.316 95.3866 152.985C95.6883 172.351 111.857 187.676 131.164 187.676H161.752C162.416 187.676 162.959 188.219 162.959 188.882V201.793C162.898 202.457 162.355 203 161.692 203Z" fill="white"/>
<path d="M237.771 203H178.947C178.223 203 177.559 202.397 177.559 201.612V189.003C177.559 188.279 178.162 187.615 178.947 187.615H237.771C238.495 187.615 239.158 188.219 239.158 189.003V201.612C239.098 202.397 238.495 203 237.771 203Z" fill="white"/>
</svg>
