<svg width="1601" height="250" viewBox="0 0 1601 250" fill="none" xmlns="http://www.w3.org/2000/svg">
<path d="M172.597 117.799L115.945 61.2072C115.342 60.6039 114.316 61.0262 114.316 61.8709V117.316C114.316 117.859 113.894 118.281 113.351 118.281H99.8965C99.3535 118.281 98.9312 117.859 98.9312 117.316V24.9476C98.9312 24.1029 99.9568 23.6806 100.56 24.284L183.396 106.999C183.758 107.361 183.758 107.965 183.396 108.327L173.924 117.859C173.562 118.221 172.959 118.221 172.597 117.799Z" fill="white"/>
<path d="M202.944 141.208H188.645C188.042 141.208 187.559 140.725 187.559 140.122V127.03C187.559 126.426 188.042 125.944 188.645 125.944H203.125C227.318 125.944 247.047 105.913 245.9 81.7202C244.814 59.3973 226.353 41.5389 203.728 41.5389H188.343V73.2737C188.343 73.877 187.861 74.3596 187.257 74.3596H174.165C173.562 74.3596 173.079 73.877 173.079 73.2737V27.3006C173.079 26.6972 173.562 26.2146 174.165 26.2146H203.788C235.161 26.2146 260.742 51.4334 261.285 82.6855C261.828 114.963 235.282 141.208 202.944 141.208Z" fill="white"/>
<path d="M171.692 227H141.224C113.35 227 90.2432 204.737 90.0019 176.924C89.7606 148.81 112.506 125.883 140.56 125.883H171.752C172.416 125.883 172.959 126.426 172.959 127.09V140.001C172.959 140.665 172.416 141.208 171.752 141.208H140.621C121.013 141.208 105.085 157.316 105.387 176.985C105.688 196.351 121.857 211.676 141.164 211.676H171.752C172.416 211.676 172.959 212.219 172.959 212.882V225.793C172.898 226.457 172.355 227 171.692 227Z" fill="white"/>
<path d="M247.771 227H188.947C188.223 227 187.559 226.397 187.559 225.612V213.003C187.559 212.279 188.162 211.615 188.947 211.615H247.771C248.495 211.615 249.158 212.219 249.158 213.003V225.612C249.098 226.397 248.495 227 247.771 227Z" fill="white"/>
</svg>
